<svg xmlns="http://www.w3.org/2000/svg" viewBox="0 0 48 48" width="48" height="48"><defs><path id="grad1" x1="0%" y1="0%" x2="100%" y2="100%" d=""><stop offset="0%" style="stop-color:#667eea;stop-opacity:1"/><stop offset="100%" style="stop-color:#764ba2;stop-opacity:1"/></path></defs><path width="128" height="128" rx="20" fill="url(#grad1)" d="M7.5 0h33A7.5 7.5 0 0 1 48 7.5v33a7.5 7.5 0 0 1 -7.5 7.5h-33A7.5 7.5 0 0 1 0 40.5v-33A7.5 7.5 0 0 1 7.5 0"/><g fill="white"><path cx="64" cy="50" r="25" fill="none" stroke="white" stroke-width="1.125" d="M33.375 18.75A9.375 9.375 0 0 1 24 28.125 9.375 9.375 0 0 1 14.625 18.75a9.375 9.375 0 0 1 18.75 0z"/><path cx="54" cy="45" r="3" d="M21.375 16.875A1.125 1.125 0 0 1 20.25 18a1.125 1.125 0 0 1 -1.125 -1.125 1.125 1.125 0 0 1 2.25 0"/><path cx="74" cy="45" r="3" d="M28.875 16.875A1.125 1.125 0 0 1 27.75 18a1.125 1.125 0 0 1 -1.125 -1.125 1.125 1.125 0 0 1 2.25 0"/><path d="M20.25 22.5q3.75 3.75 7.5 0" stroke="white" stroke-width="0.75" fill="none"/><path d="m7.5 33.75 5.625 -5.625 5.625 3.75 5.625 -7.5L30 26.25l5.625 -7.5L40.5 22.5" stroke="white" stroke-width="1.125" fill="none"/><path cx="35" cy="75" r="3" d="M14.25 28.125a1.125 1.125 0 0 1 -1.125 1.125A1.125 1.125 0 0 1 12 28.125a1.125 1.125 0 0 1 2.25 0"/><path cx="65" cy="65" r="3" d="M25.5 24.375a1.125 1.125 0 0 1 -1.125 1.125 1.125 1.125 0 0 1 -1.125 -1.125 1.125 1.125 0 0 1 2.25 0"/><path cx="95" cy="50" r="3" d="M36.75 18.75a1.125 1.125 0 0 1 -1.125 1.125 1.125 1.125 0 0 1 -1.125 -1.125 1.125 1.125 0 0 1 2.25 0"/></g><text x="64" y="115" font-family="Arial, sans-serif" font-size="12" text-anchor="middle" fill="white" font-weight="bold">AI TRADE</text></svg>